<svg width="207" height="209" viewBox="0 0 207 209" fill="none" xmlns="http://www.w3.org/2000/svg">
<ellipse cx="103.5" cy="104.5" rx="103.5" ry="104.5" fill="#F4D046"/>
<path d="M146.782 152.95V142.077C146.781 136.31 144.476 130.78 140.373 126.702C136.27 122.624 130.706 120.332 124.904 120.332H81.1519C75.3504 120.332 69.7865 122.622 65.6843 126.7C61.582 130.777 59.2773 136.308 59.2773 142.074V152.947M124.904 76.8437C124.904 71.0768 122.599 65.5463 118.497 61.4685C114.394 57.3907 108.83 55.1 103.028 55.1C97.2261 55.1 91.6618 57.3907 87.5592 61.4685C83.4567 65.5463 81.1519 71.0768 81.1519 76.8437C81.1519 82.6106 83.4567 88.1411 87.5592 92.2189C91.6618 96.2967 97.2261 98.5878 103.028 98.5878C108.83 98.5878 114.394 96.2967 118.497 92.2189C122.599 88.1411 124.904 82.6106 124.904 76.8437Z" stroke="white" stroke-width="5" stroke-miterlimit="22.926" stroke-linecap="round" stroke-linejoin="round"/>
</svg>
