<?xml version="1.0" encoding="utf-8"?>
<!-- Generator: Adobe Illustrator 24.0.1, SVG Export Plug-In . SVG Version: 6.00 Build 0)  -->
<svg version="1.1" id="ico" xmlns="http://www.w3.org/2000/svg" xmlns:xlink="http://www.w3.org/1999/xlink" x="0px" y="0px"
	 width="50px" height="50px" viewBox="0 0 50 50" style="enable-background:new 0 0 50 50;" xml:space="preserve">
<path d="M12.632,44.267h24.736c0.997,0,1.809-0.874,1.809-1.949V9.167c0-1.075-0.812-1.949-1.809-1.949h-1.539H29.59V6.383
	c0-0.359-0.291-0.65-0.65-0.65h-7.879c-0.359,0-0.65,0.291-0.65,0.65v0.836h-6.239h-1.539c-0.997,0-1.809,0.874-1.809,1.949v33.151
	C10.823,43.393,11.635,44.267,12.632,44.267z M21.711,7.033h6.578v1.672h-6.578V7.033z M20.41,8.519v0.836
	c0,0.359,0.291,0.65,0.65,0.65h7.879c0.359,0,0.65-0.291,0.65-0.65V8.519h5.589v30.831H14.821V8.519H20.41z M12.124,9.167
	c0-0.352,0.232-0.649,0.508-0.649h0.889v31.48c0,0.359,0.291,0.65,0.65,0.65h21.658c0.359,0,0.65-0.291,0.65-0.65V8.519h0.889
	c0.275,0,0.508,0.297,0.508,0.649v33.151c0,0.352-0.232,0.649-0.508,0.649H12.632c-0.275,0-0.508-0.297-0.508-0.649V9.167z
	 M16.693,27.315c0-0.359,0.291-0.65,0.65-0.65h15.312c0.359,0,0.65,0.291,0.65,0.65s-0.291,0.65-0.65,0.65H17.344
	C16.984,27.965,16.693,27.674,16.693,27.315z M16.693,31.324c0-0.359,0.291-0.65,0.65-0.65h15.312c0.359,0,0.65,0.291,0.65,0.65
	s-0.291,0.65-0.65,0.65H17.344C16.984,31.974,16.693,31.683,16.693,31.324z M16.693,35.333c0-0.359,0.291-0.65,0.65-0.65h15.312
	c0.359,0,0.65,0.291,0.65,0.65s-0.291,0.65-0.65,0.65H17.344C16.984,35.983,16.693,35.692,16.693,35.333z M19.986,20.638h2.178
	v2.178c0,0.359,0.291,0.65,0.65,0.65h4.312c0.359,0,0.65-0.291,0.65-0.65v-2.178h2.178c0.359,0,0.65-0.291,0.65-0.65v-4.312
	c0-0.359-0.291-0.65-0.65-0.65h-2.178v-2.178c0-0.359-0.291-0.65-0.65-0.65h-4.312c-0.359,0-0.65,0.291-0.65,0.65v2.178h-2.178
	c-0.359,0-0.65,0.291-0.65,0.65v4.312C19.336,20.347,19.627,20.638,19.986,20.638z M20.637,16.326h2.178
	c0.359,0,0.65-0.291,0.65-0.65v-2.178h3.011v2.178c0,0.359,0.291,0.65,0.65,0.65h2.178v3.012h-2.178c-0.359,0-0.65,0.291-0.65,0.65
	v2.178h-3.011v-2.178c0-0.359-0.291-0.65-0.65-0.65h-2.178V16.326z"/>
</svg>
